# xmcd
#
# Track frame offsets: 
#        150
#        18535
#        35075
#        56822
#        74057
#        95930
#        109479
#        131316
#        151566
#        172449
#
# Disc length: 2550 seconds
#
# Revision: 0
# Processed by: cddbd v1.5.2PL0 Copyright (c) Steve Scherf et al.
# Submitted via: ExactAudioCopy v1.0b3
#
DISCID=9809f40a
DTITLE=Ford - Back To Basic
DYEAR=2002
DGENRE=Pop
TTITLE0=ภาพความรัก (Fire)
TTITLE1=จะรักเธออีกครั้งได้ยังไง
TTITLE2=ถ้าฉันไม่มีเธอ
TTITLE3=ไม่รักไม่เป็นไร
TTITLE4=ฟ้าเดียวกัน(Featuring "Soul After Six")
TTITLE5=You're in my dreams
TTITLE6=อีกกี่ครั้ง..อีกกี่คน
TTITLE7=ดอกไม้ในใจ (Flower)
TTITLE8=ใต้แสงดวงดาว
TTITLE9=ปลายทางที่ฝัน
EXTD=
EXTT0=
EXTT1=
EXTT2=
EXTT3=
EXTT4=
EXTT5=
EXTT6=
EXTT7=
EXTT8=
EXTT9=
PLAYORDER=
